<svg xmlns="http://www.w3.org/2000/svg" viewBox="0 0 137 47" preserveAspectRatio="xMidYMid meet"><path d="M40.29 16.4c-.2-.4-.72-.72-1.16-.72h-.9c-.44 0-.96.33-1.15.72l-7.13 14.88c-.2.39.02.68.46.68h1.65c.65 0 .95-.3 1.12-.66.18-.36.57-1.15.64-1.31.1-.22.41-.35.86-.35h7.67c.44 0 .73.08.86.35.09.17.48.88.67 1.26.19.39.52.7 1.15.7h2.39c.44 0 .64-.34.48-.65-.16-.3-7.61-14.9-7.61-14.9zm-4.5 10.94c-.44 0-.65-.33-.46-.73l2.81-6.01c.19-.4.49-.4.67 0l2.73 6.01c.18.4-.03.73-.47.73h-5.28zm59.55-10.83v14.76c0 .41.36.68.8.68h1.95c.44 0 .8-.28.8-.72V16.48c0-.44-.29-.8-.73-.8h-2.02c-.44 0-.8.27-.8.83zm-32.62 9.25c-.25-.36-.11-.76.31-.89 0 0 1.68-.5 2.49-1.23.81-.72 1.21-1.77 1.21-3.13 0-.89-.16-1.64-.47-2.25-.31-.61-.75-1.1-1.33-1.49-.58-.38-1.27-.66-2.08-.84-.81-.17-1.9-.23-1.9-.23-.44-.02-1.16-.04-1.6-.04h-8.09c-.44 0-.8.36-.8.8v14.75c0 .44.36.72.8.72h1.91c.44 0 .8-.28.8-.72v-5.87s.01 0 .01-.01l3.63-.01c.44 0 1.01.3 1.27.66l3.77 5.3c.35.47.68.65 1.12.65h2.5c.44 0 .51-.42.36-.63-.16-.19-3.91-5.54-3.91-5.54zm-1.53-3c-.5.11-1.05.14-1.05.14-.44.02-1.16.03-1.6.03h-3.75c-.44 0-.8-.36-.8-.8v-2.99c0-.44.36-.8.8-.8h3.75c.44 0 1.16.02 1.6.03 0 0 .56.02 1.05.14.5.11.89.27 1.18.48.29.21.5.45.62.73.12.28.19.58.19.92 0 .33-.06.64-.19.92-.12.28-.33.52-.62.73-.29.2-.68.36-1.18.47zm58.06-7.08c-.44 0-.8.29-.8.72v9.44c0 .44-.25.54-.56.23l-9.45-9.8c-.31-.32-.76-.58-1.36-.58h-1.78c-.56 0-.8.3-.8.6v15.09c0 .3.29.59.73.59h1.78c.44 0 .75-.24.75-.65l.01-9.94c0-.44.25-.54.56-.22l9.86 10.24c.31.31.69.57 1.37.57h1.34c.44 0 .8-.36.8-.8V16.48c0-.44-.36-.8-.8-.8h-1.65zm-38.54 9.2c-.21.39-.57.38-.78 0l-4.62-8.48c-.2-.39-.6-.72-1.16-.72h-2.51c-.44 0-.8.36-.8.8v14.74c0 .44.29.74.8.74h1.56c.44 0 .76-.28.76-.7 0-.2.01-10.72.02-10.72.02 0 5.77 10.71 5.77 10.71.21.39.72.39.93 0 0 0 5.8-10.69 5.81-10.69.02 0 .01 10.38.01 10.69 0 .43.34.7.78.7h1.79c.44 0 .8-.22.8-.8V16.48c0-.44-.36-.8-.8-.8h-2.4c-.61 0-.98.31-1.2.7l-4.76 8.5zM9.47 23.8c0 7.95 8.13 8.35 9.76 8.35 5.4 0 7.68-1.46 7.77-1.52.34-.19.75-.58.75-1.3v-5.49c0-.51-.41-.92-.92-.92h-6.78c-.51 0-.84.41-.84.92v.57c0 .51.33.92.84.92h3.92c.38 0 .69.31.69.69v2.56c-.77.32-4.3 1.35-7.14.67-4.11-.98-4.43-4.38-4.43-5.39 0-.85.26-5.13 5.31-5.56 4.09-.35 6.78 1.3 6.81 1.32.48.25.98.07 1.25-.44l.51-1.03c.21-.42.14-.86-.38-1.21-.03-.02-2.9-1.57-7.35-1.57-9.5-.01-9.77 7.57-9.77 8.43zm116.2 4.77c1.02 0 1.86.83 1.86 1.86 0 1.02-.83 1.86-1.86 1.86-1.02 0-1.86-.83-1.86-1.86 0-1.02.84-1.86 1.86-1.86zm.01 3.44c.85 0 1.5-.69 1.5-1.58 0-.89-.64-1.58-1.5-1.58s-1.51.69-1.51 1.58c0 .89.64 1.58 1.51 1.58zm-.72-2.67h.83c.5 0 .75.2.75.61 0 .35-.22.6-.56.6l.62.96h-.38l-.61-.96h-.3v.96h-.36v-2.17zm.36.93h.42c.27 0 .45-.06.45-.34 0-.25-.22-.32-.45-.32h-.42v.66z"/></svg>