    <svg
      fill="#ffffff"
      height="185px"
      width="185px"
      version="1.1"
      id="Layer_1"
      xmlns="http://www.w3.org/2000/svg"
      viewBox="-51.2 -51.2 614.40 614.40"
      stroke="#ffffff"
      stroke-width="0.00512"
    >
      <g id="SVGRepo_bgCarrier" stroke-width="0"></g>
      <g
        id="SVGRepo_tracerCarrier"
        stroke-linecap="round"
        stroke-linejoin="round"
      ></g>
      <g id="SVGRepo_iconCarrier">
        {" "}
        <g>
          {" "}
          <g>
            {" "}
            <path d="M503.983,127.199c4.428,0,8.017-3.588,8.017-8.017V42.221C512,18.941,493.059,0,469.779,0H42.221 C18.941,0,0,18.941,0,42.221v307.841c0,23.281,18.941,42.221,42.221,42.221h42.756c4.427,0,8.017-3.588,8.017-8.017 c0-4.428-3.589-8.017-8.017-8.017H42.221c-14.44,0-26.188-11.747-26.188-26.188v-0.534h479.933v0.534 c0,14.441-11.747,26.188-26.188,26.188H119.182c-4.427,0-8.017,3.588-8.017,8.017c0,4.428,3.589,8.017,8.017,8.017h84.458 l-12.632,69.478H179.04c-13.851,0-25.119,11.268-25.119,25.119v17.102c0,4.428,3.589,8.017,8.017,8.017h188.125 c4.428,0,8.017-3.588,8.017-8.017v-17.102c0-13.851-11.268-25.119-25.119-25.119h-11.966l-12.632-69.478h161.417 c23.281,0,42.221-18.941,42.221-42.221V153.389c0-4.428-3.588-8.017-8.017-8.017c-4.428,0-8.017,3.588-8.017,8.017v180.105H16.033 V58.789h479.933v60.394C495.967,123.611,499.555,127.199,503.983,127.199z M219.934,392.284h72.13l12.633,69.478h-97.395 L219.934,392.284z M332.96,477.795c5.01,0,9.086,4.076,9.086,9.086v9.086H169.954v-9.086c0-5.01,4.076-9.086,9.086-9.086H332.96z M16.033,42.756v-0.534c0-14.441,11.748-26.188,26.188-26.188h427.557c14.441,0,26.188,11.747,26.188,26.188v0.534H16.033z"></path>{" "}
          </g>{" "}
        </g>{" "}
        <g>
          {" "}
          <g>
            {" "}
            <path d="M444.125,85.511h-6.299l3.416-3.416c3.131-3.132,3.131-8.207,0-11.338c-3.132-3.13-8.207-3.13-11.338,0l-11.433,11.434 l-11.433-11.434c-3.132-3.13-8.207-3.13-11.338,0c-3.131,3.132-3.131,8.207,0,11.338l3.416,3.416h-6.299 c-4.428,0-8.017,3.588-8.017,8.017v43.29H264.551c-27.995,0-50.772,22.777-50.772,50.772s22.777,50.772,50.772,50.772h119.716 c19.156,0,34.739,15.583,34.739,34.739c0,19.156-15.583,34.739-34.739,34.739H144.403c6.516-8.389,15.301-20.104,24.168-33.172 c23.614-34.804,35.588-61.224,35.588-78.527c0-42.141-34.285-76.426-76.426-76.426s-76.426,34.285-76.426,76.426 c0,17.303,11.974,43.723,35.588,78.527c16.968,25.008,33.648,45.085,34.65,46.286c1.727,1.727,3.657,2.919,6.188,2.919h256.534 c27.995,0,50.772-22.777,50.772-50.772s-22.777-50.772-50.772-50.772H264.551c-19.155,0-34.739-15.583-34.739-34.739 s15.584-34.739,34.739-34.739h128.267h51.307c4.428,0,8.017-3.588,8.017-8.017V93.528C452.142,89.1,448.554,85.511,444.125,85.511 z M67.34,196.142c0-33.3,27.092-60.393,60.393-60.393s60.392,27.092,60.392,60.393c0,25.814-39.164,80.346-60.392,107.013 C106.505,276.487,67.34,221.956,67.34,196.142z M400.835,101.545h9.62v9.62h-9.62V101.545z M400.835,136.818v-9.62h9.62v9.086 c0,0.181,0.015,0.357,0.027,0.534H400.835z M436.109,136.818h-9.647c0.012-0.177,0.027-0.354,0.027-0.534v-9.086h9.086 c0.181,0,0.357-0.015,0.534-0.027V136.818z M436.109,111.192c-0.177-0.012-0.354-0.027-0.534-0.027h-9.086v-9.62h9.62V111.192z"></path>{" "}
          </g>{" "}
        </g>{" "}
        <g>
          {" "}
          <g>
            {" "}
            <path d="M127.733,153.921c-23.281,0-42.221,18.941-42.221,42.221s18.941,42.221,42.221,42.221s42.221-18.941,42.221-42.221 S151.013,153.921,127.733,153.921z M127.733,222.33c-14.44,0-26.188-11.747-26.188-26.188s11.748-26.188,26.188-26.188 s26.188,11.747,26.188,26.188S142.172,222.33,127.733,222.33z"></path>{" "}
          </g>{" "}
        </g>{" "}
      </g>
    </svg>


